<svg xmlns="http://www.w3.org/2000/svg" viewBox="0 0 66 72"><defs><style>.cls-1{fill:#fff;fill-rule:evenodd;}</style></defs><g id="Layer_2" data-name="Layer 2"><g id="Layer_1-2" data-name="Layer 1"><path class="cls-1" d="M18,10.41,32,20a1.9,1.9,0,0,0,1.06.33A1.82,1.82,0,0,0,34.07,20l14-9.57a1.92,1.92,0,0,0-.26-3.27L33.82.19a2,2,0,0,0-1.68,0L18.2,7.11a1.92,1.92,0,0,0-.23,3.3ZM37.76,23a1.92,1.92,0,0,0,.83,1.58L49.8,32.19A1.87,1.87,0,0,0,52.12,32l9.4-8.41a1.88,1.88,0,0,0,.64-1.48,1.93,1.93,0,0,0-.72-1.44l-9-7.18a1.91,1.91,0,0,0-2.25-.08l-11.62,8A1.92,1.92,0,0,0,37.76,23ZM9.88,33.37A1.9,1.9,0,0,1,10.51,35a1.86,1.86,0,0,1-.95,1.46l-6.69,4A1.87,1.87,0,0,1,.72,40.3a1.91,1.91,0,0,1-.63-2.07l2.47-7.79a1.92,1.92,0,0,1,1.31-1.27,1.83,1.83,0,0,1,1.76.42Zm36.3.81L34.08,25.9a1.9,1.9,0,0,0-2.12,0l-12.1,8.28A1.94,1.94,0,0,0,19,35.64a2,2,0,0,0,.64,1.56L31.76,48A1.87,1.87,0,0,0,33,48.5,1.92,1.92,0,0,0,34.29,48L46.37,37.2A1.92,1.92,0,0,0,47,35.64a1.87,1.87,0,0,0-.82-1.46ZM13.91,32,4.52,23.63a2,2,0,0,1-.64-1.51,1.89,1.89,0,0,1,.71-1.44l9-7.22a1.92,1.92,0,0,1,2.26-.09l11.61,8a1.92,1.92,0,0,1,0,3.21L16.25,32.19A1.91,1.91,0,0,1,13.91,32ZM62.13,44.12,52.57,38.4a1.88,1.88,0,0,0-2.23.21L38.65,49A1.94,1.94,0,0,0,38,50.8a1.92,1.92,0,0,0,1.16,1.45l16.22,6.57a1.86,1.86,0,0,0,.7.14,1.9,1.9,0,0,0,1.74-1.14l5-11.25a1.92,1.92,0,0,0-.75-2.45Zm1.33-13.68,2.47,7.79h0a1.94,1.94,0,0,1-.28,1.71,1.91,1.91,0,0,1-1.54.78,1.81,1.81,0,0,1-1-.27l-6.71-4a1.92,1.92,0,0,1-.28-3.07l4.25-3.79a1.89,1.89,0,0,1,1.76-.42,2,2,0,0,1,1.31,1.28ZM28,50.8A1.93,1.93,0,0,0,27.39,49L15.71,38.61a1.9,1.9,0,0,0-2.24-.21L3.91,44.12a2,2,0,0,0-.76,2.44l5,11.25a1.91,1.91,0,0,0,2.45,1l16.2-6.57A1.93,1.93,0,0,0,28,50.8ZM33.73,54l13,5.26a1.94,1.94,0,0,1,.34,3.35l-13,9A1.83,1.83,0,0,1,33,72a2,2,0,0,1-1.06-.34l-13-9a1.91,1.91,0,0,1,.38-3.35l13-5.26a1.84,1.84,0,0,1,1.42,0Z"/></g></g></svg>